# xmcd CD database file
#
# Track frame offsets:
#	150
#	13205
#	25445
#	39682
#	51960
#	65802
#	91555
#	101612
#	115972
#	130300
#	142035
#	153730
#	167182
#	180467
#	193647
#	205685
#	218980
#	233232
#	247305
#	258327
#	268837
#	279897
#	296007
#	311282
#
# Disc length: 4374 seconds
#
# Revision: 0
# Processed by: cddbd v1.5.2PL0 Copyright (c) Steve Scherf et al.
# Submitted via: CDex 1.70beta2
#
DISCID=71111418
DTITLE=DIZZY GILLESPIE - THE COMPLETE LEADER RECORDINGS OF DIZZY GILLESPIE ON SAVOY (disc2)
DYEAR=1993
DGENRE=Jazz
TTITLE0=WE LOVE TO BOOGIE
TTITLE1=TIN TIN DEO
TTITLE2=BIRKS WORKS
TTITLE3=LADY BE GOOD
TTITLE4=LOVE ME PRETTY BABY
TTITLE5=THE CHAMP
TTITLE6=I'M IN A MESS
TTITLE7=SCHOOL DAYS
TTITLE8=SWING LOW, SWEET CADILLAC
TTITLE9=BOPSIE'S BLUES
TTITLE10=BOPSIE'S BLUES(ALT,TAKE)
TTITLE11=I COULDNT BEAT THE RAP
TTITLE12=CARAVAN
TTITLE13=CARAVAN(ALT,TAKE)
TTITLE14=NOBODY KNOWS THE TROUBLE
TTITLE15=THE BLUEST BLUES
TTITLE16=ON THE SUNNY SIDE OF THE STREET
TTITLE17=STARDUST
TTITLE18=TIME ON MY HANDS
TTITLE19=BLUE SKIES
TTITLE20=UMBRELLA MAN
TTITLE21=POPS CONFESSIN'
TTITLE22=OO-SHOO-BEE-DOO-DE
TTITLE23=THEY CAN'T TAKE AWAY FROM ME
EXTD=YEAR: 1993
EXTT0=
EXTT1=
EXTT2=
EXTT3=
EXTT4=
EXTT5=
EXTT6=
EXTT7=
EXTT8=
EXTT9=
EXTT10=
EXTT11=
EXTT12=
EXTT13=
EXTT14=
EXTT15=
EXTT16=
EXTT17=
EXTT18=
EXTT19=
EXTT20=
EXTT21=
EXTT22=
EXTT23=
PLAYORDER=
